{"accessors" : [{"bufferView" : 0, "byteOffset" : 0, "componentType" : 5123, "count" : 74997, "type" : "SCALAR", "max" : [14983], "min" : [0]}, {"bufferView" : 1, "byteOffset" : 0, "componentType" : 5126, "count" : 14984, "type" : "VEC3", "max" : [0.1360979676246643, 0.09995809942483902, 0.13115188479423523], "min" : [-0.1360979527235031, -1.860885667781531E-08, -0.13115189969539642], "name" : "POSITION"}, {"bufferView" : 1, "byteOffset" : 12, "componentType" : 5126, "count" : 14984, "type" : "VEC3", "max" : [0.9999850392341614, 1.0000042915344238, 0.9997724890708923], "min" : [-0.9988135099411011, -0.9473384618759155, -0.9993306994438171], "name" : "NORMAL"}, {"bufferView" : 1, "byteOffset" : 24, "componentType" : 5126, "count" : 14984, "type" : "VEC2", "max" : [0.9999182224273682, 0.9998906850814819], "min" : [3.293484098776389E-07, 6.794929504394531E-05], "name" : "TEXCOORD_0"}], "asset" : {"generator" : "Aspose.3D 24.6.0", "version" : "2.0"}, "buffers" : [{"uri" : "buffer.bin", "byteLength" : 10874512}], "bufferViews" : [{"buffer" : 0, "byteOffset" : 0, "byteLength" : 149996, "target" : 34963}, {"buffer" : 0, "byteOffset" : 150000, "byteLength" : 479488, "byteStride" : 32, "target" : 34962}, {"buffer" : 0, "byteOffset" : 629492, "byteLength" : 3741925}, {"buffer" : 0, "byteOffset" : 4371420, "byteLength" : 698031}, {"buffer" : 0, "byteOffset" : 5069452, "byteLength" : 5805059}], "images" : [{"mimeType" : "image/png", "bufferView" : 2}, {"mimeType" : "image/png", "bufferView" : 3}, {"mimeType" : "image/png", "bufferView" : 4}], "materials" : [{"name" : "Texture", "pbrMetallicRoughness" : {"baseColorFactor" : [1, 1, 1, 1], "baseColorTexture" : {"index" : 2, "texCoord" : 0}, "metallicFactor" : 0, "roughnessFactor" : 0.8999999761581421}, "normalTexture" : {"index" : 0, "texCoord" : 0, "scale" : 1}, "occlusionTexture" : {"index" : 1, "texCoord" : 0, "strength" : 0}, "emissiveFactor" : [0, 0, 0], "alphaMode" : "OPAQUE", "doubleSided" : false}], "meshes" : [{"primitives" : [{"attributes" : {"POSITION" : 1, "NORMAL" : 2, "TEXCOORD_0" : 3}, "indices" : 0, "material" : 0, "mode" : 4}], "name" : "Mesh"}], "nodes" : [{"mesh" : 0, "name" : "ObjectCapture"}], "samplers" : [{"magFilter" : 9729, "minFilter" : 9729, "wrapS" : 10497, "wrapT" : 10497}, {"magFilter" : 9729, "minFilter" : 9729, "wrapS" : 10497, "wrapT" : 10497}, {"magFilter" : 9729, "minFilter" : 9729, "wrapS" : 10497, "wrapT" : 10497}], "scene" : 0, "scenes" : [{"nodes" : [0]}], "textures" : [{"sampler" : 0, "source" : 0, "name" : "normal_texture"}, {"sampler" : 1, "source" : 1, "name" : "occlusion_texture"}, {"sampler" : 2, "source" : 2, "name" : "diffuseColor_texture"}]}